<svg width="298" height="192" viewBox="0 0 298 192" fill="none" xmlns="http://www.w3.org/2000/svg">
<g clip-path="url(#clip0_396_757)">
<path d="M279.486 29.538L267.554 29.8988C266.153 29.9412 264.821 30.5196 263.827 31.5171L243.347 52.0722" stroke="white" stroke-width="4" stroke-miterlimit="10" stroke-linecap="round"/>
<path d="M288.04 19.6902C279.698 19.6902 279.486 29.538 279.486 29.538C279.486 29.538 279.698 36.6214 286.544 38.1229C293.385 39.6245 297.736 34.2602 297.736 29.8245C297.736 24.1737 294.775 19.6902 288.04 19.6902ZM288.416 35.9741C284.609 35.9741 281.77 33.0717 281.77 29.2515C281.77 25.4312 284.609 22.1309 288.416 22.1309C292.222 22.1309 295.309 25.2296 295.309 29.0498C295.309 32.8701 292.222 35.9687 288.416 35.9687V35.9741Z" fill="#EA8B34" stroke="white" stroke-miterlimit="10"/>
<path d="M274.781 82.3319L238.642 82.6609" stroke="white" stroke-width="4" stroke-miterlimit="10" stroke-linecap="round"/>
<path d="M283.335 72.4894C274.993 72.4894 274.781 82.3372 274.781 82.3372C274.781 82.3372 274.993 89.4206 281.839 90.9221C288.68 92.4237 293.031 87.0594 293.031 82.6237C293.031 76.9729 290.07 72.4894 283.335 72.4894ZM283.71 88.7732C279.904 88.7732 277.065 85.8709 277.065 82.0506C277.065 78.2304 279.904 74.9301 283.71 74.9301C287.517 74.9301 290.604 78.0288 290.604 81.849C290.604 85.6693 287.517 88.7679 283.71 88.7679V88.7732Z" fill="#EA8B34" stroke="white" stroke-miterlimit="10"/>
<path d="M278.846 138.134L266.671 137.88C264.884 137.842 263.182 137.089 261.95 135.789L243.235 116.099" stroke="white" stroke-width="4" stroke-miterlimit="10"/>
<path d="M287.401 128.292C279.058 128.292 278.847 138.14 278.847 138.14C278.847 138.14 279.058 145.223 285.904 146.725C292.745 148.226 297.096 142.862 297.096 138.426C297.096 132.775 294.136 128.292 287.401 128.292ZM287.771 144.576C283.964 144.576 281.125 141.673 281.125 137.853C281.125 134.033 283.964 130.732 287.771 130.732C291.577 130.732 294.664 133.831 294.664 137.651C294.664 141.472 291.577 144.57 287.771 144.57V144.576Z" fill="#EA8B34" stroke="white" stroke-miterlimit="10"/>
<path d="M254.036 182.248L206.577 182.444C203.569 182.455 200.678 181.25 198.563 179.101L192.806 173.238" stroke="white" stroke-width="4" stroke-miterlimit="10"/>
<path d="M262.59 172.4C254.248 172.4 254.036 182.248 254.036 182.248C254.036 182.248 254.248 189.331 261.094 190.833C267.935 192.334 272.286 186.97 272.286 182.534C272.286 176.883 269.325 172.4 262.59 172.4ZM262.965 188.684C259.159 188.684 256.32 185.781 256.32 181.961C256.32 178.141 259.159 174.841 262.965 174.841C266.772 174.841 269.859 177.939 269.859 181.76C269.859 185.58 266.772 188.678 262.965 188.678V188.684Z" fill="#EA8B34" stroke="white" stroke-miterlimit="10"/>
<path d="M235.274 34.324H235.089C230.669 34.2338 227.143 30.578 227.201 26.1369L227.217 24.959C227.27 20.4543 223.654 16.772 219.165 16.772H218.552C214.164 16.772 210.58 13.2435 210.501 8.83432C210.421 4.45163 206.879 0.933804 202.518 0.896662L158.955 0.530554C154.467 0.493413 150.814 4.14919 150.835 8.65392L151.084 165.205C151.105 169.646 155.218 173.238 159.643 173.249L201.286 173.35C205.743 173.36 209.359 169.736 209.359 165.263V164.998C209.359 160.531 212.964 156.912 217.41 156.912H218.235C222.581 156.912 226.144 153.447 226.281 149.086L226.355 146.788C226.493 142.453 230.014 138.999 234.338 138.962L235.935 138.951C240.381 138.914 243.96 135.264 243.918 130.796L243.162 42.3253C243.125 37.9479 239.63 34.3982 235.274 34.3133V34.324ZM176.38 35.2313H201.101C205.547 35.2313 209.153 38.8499 209.153 43.3175V61.9147C209.153 66.3823 205.547 70.001 201.101 70.001H176.38C171.934 70.001 168.329 66.3823 168.329 61.9147V43.3175C168.329 38.8499 171.934 35.2313 176.38 35.2313ZM201.386 139.249H176.666C172.22 139.249 168.614 135.63 168.614 131.162V112.565C168.614 108.097 172.22 104.479 176.666 104.479H201.386C205.832 104.479 209.438 108.097 209.438 112.565V131.162C209.438 135.63 205.832 139.249 201.386 139.249Z" fill="#FC7E00" stroke="white" stroke-width="2" stroke-miterlimit="10"/>
<path d="M18.5146 30.1801L27.6236 30.456C30.8379 30.5515 33.8936 31.8779 36.1669 34.1595L54.6544 52.7143" stroke="white" stroke-width="5" stroke-miterlimit="10"/>
<path d="M0.264648 30.4666C0.264648 34.9023 4.61031 40.2666 11.4566 38.765C18.2975 37.2635 18.5143 30.1801 18.5143 30.1801C18.5143 30.1801 18.3028 20.3323 9.96043 20.3323C3.22519 20.3323 0.264648 24.8105 0.264648 30.4666ZM2.68595 29.6972C2.68595 25.877 5.77338 22.7783 9.57979 22.7783C13.3862 22.7783 16.2252 26.0733 16.2252 29.8988C16.2252 33.7244 13.3862 36.6214 9.57979 36.6214C5.77338 36.6214 2.68595 33.5228 2.68595 29.7025V29.6972Z" fill="#004E98" stroke="white" stroke-miterlimit="10"/>
<path d="M23.2197 82.9792L59.3595 83.3082" stroke="white" stroke-width="5" stroke-miterlimit="10"/>
<path d="M4.96973 83.2658C4.96973 87.7015 9.31538 93.0658 16.1616 91.5642C23.0026 90.0627 23.2194 82.9793 23.2194 82.9793C23.2194 82.9793 23.0079 73.1315 14.6655 73.1315C7.93027 73.1315 4.96973 77.6097 4.96973 83.2658ZM7.39103 82.4964C7.39103 78.6762 10.4785 75.5775 14.2849 75.5775C18.0913 75.5775 20.9302 78.8725 20.9302 82.698C20.9302 86.5183 18.0913 89.4206 14.2849 89.4206C10.4785 89.4206 7.39103 86.322 7.39103 82.5017V82.4964Z" fill="#004E98" stroke="white" stroke-miterlimit="10"/>
<path d="M19.1543 138.782L28.8712 138.575C32.2336 138.506 35.432 137.089 37.7529 134.648L54.7654 116.746" stroke="white" stroke-width="5" stroke-miterlimit="10"/>
<path d="M0.904297 139.068C0.904297 143.504 5.24995 148.868 12.0962 147.367C18.9372 145.865 19.1539 138.782 19.1539 138.782C19.1539 138.782 18.9425 128.934 10.6001 128.934C3.86484 128.934 0.904297 133.412 0.904297 139.068ZM3.33089 138.299C3.33089 134.479 6.41831 131.38 10.2247 131.38C14.0311 131.38 16.8701 134.675 16.8701 138.5C16.8701 142.326 14.0311 145.223 10.2247 145.223C6.41831 145.223 3.33089 142.124 3.33089 138.304V138.299Z" fill="#004E98" stroke="white" stroke-miterlimit="10"/>
<path d="M43.96 182.89L90.7419 183.081C94.1888 183.097 97.493 181.717 99.909 179.255L105.19 173.875" stroke="white" stroke-width="5" stroke-miterlimit="10"/>
<path d="M25.71 183.176C25.71 187.612 30.0556 192.976 36.9019 191.475C43.7429 189.973 43.9596 182.89 43.9596 182.89C43.9596 182.89 43.7481 173.042 35.4057 173.042C28.6705 173.042 25.71 177.52 25.71 183.176ZM28.1366 182.407C28.1366 178.587 31.224 175.488 35.0304 175.488C38.8368 175.488 41.6758 178.783 41.6758 182.608C41.6758 186.434 38.8368 189.331 35.0304 189.331C31.224 189.331 28.1366 186.232 28.1366 182.412V182.407Z" fill="#004E98" stroke="white" stroke-miterlimit="10"/>
<path d="M54.8334 42.9779L54.0774 131.449C54.0404 135.916 57.6142 139.567 62.0656 139.604L63.6622 139.615C67.9867 139.652 71.5076 143.106 71.6451 147.441L71.7191 149.738C71.8566 154.1 75.4198 157.565 79.7707 157.565H80.5955C85.0468 157.565 88.6524 161.183 88.6524 165.651V165.916C88.6524 170.389 92.2685 174.013 96.7251 174.002L138.39 173.901C142.814 173.891 146.933 170.299 146.954 165.858L147.202 9.30651C147.224 4.80178 143.57 1.146 139.082 1.18314L95.4986 1.54925C91.1318 1.58639 87.5897 5.10422 87.5104 9.48691C87.4311 13.8961 83.8468 17.4246 79.4588 17.4246H78.8456C74.3572 17.4246 70.7358 21.1069 70.7886 25.6116L70.8045 26.7895C70.8574 31.2306 67.3364 34.881 62.9115 34.9712H62.7265C58.3702 35.0614 54.8704 38.6164 54.8334 42.9885V42.9779ZM129.709 43.9595V62.5567C129.709 67.0243 126.103 70.6429 121.652 70.6429H96.9208C92.4694 70.6429 88.8638 67.0243 88.8638 62.5567V43.9595C88.8638 39.4919 92.4694 35.8732 96.9208 35.8732H121.652C126.103 35.8732 129.709 39.4919 129.709 43.9595ZM88.5836 131.81V113.212C88.5836 108.745 92.1892 105.126 96.6406 105.126H121.372C125.823 105.126 129.429 108.745 129.429 113.212V131.81C129.429 136.277 125.823 139.896 121.372 139.896H96.6406C92.1892 139.896 88.5836 136.277 88.5836 131.81Z" fill="#004E98" stroke="white" stroke-width="2" stroke-miterlimit="10"/>
</g>
<defs>
<clipPath id="clip0_396_757">
<rect width="298" height="192" fill="white"/>
</clipPath>
</defs>
</svg>
